<svg width="36" height="22" viewBox="0 0 36 22" fill="none" xmlns="http://www.w3.org/2000/svg">
<path d="M22.8031 2.35307H13.1772V19.6469H22.8031V2.35307Z" fill="#FF5A00"/>
<path d="M13.818 11C13.818 7.48641 15.4698 4.36796 18.0044 2.35307C16.139 0.886408 13.786 0 11.2193 0C5.13904 0 0.219299 4.91974 0.219299 11C0.219299 17.0803 5.13904 22 11.2193 22C13.786 22 16.139 21.1136 18.0044 19.6469C15.4662 17.6605 13.818 14.5136 13.818 11Z" fill="#EB001B"/>
<path d="M35.7895 11C35.7895 17.0803 30.8698 22 24.7895 22C22.2229 22 19.8698 21.1136 18.0044 19.6469C20.5711 17.6285 22.1908 14.5136 22.1908 11C22.1908 7.48641 20.5391 4.36796 18.0044 2.35307C19.8662 0.886408 22.2193 0 24.786 0C30.8698 0 35.7895 4.95178 35.7895 11Z" fill="#F79E1B"/>
</svg>
