<svg width="25" height="24" viewBox="0 0 25 24" fill="none" xmlns="http://www.w3.org/2000/svg">
<path d="M24.703 0H0.789642V24H24.703V16.0794C24.798 15.9421 24.8449 15.7664 24.8449 15.5517C24.8449 15.3059 24.798 15.1536 24.703 15.0254" fill="url(#paint0_radial_7687_68091)"/>
<path d="M2.94515 10.3853L2.4851 9.26427L2.02769 10.3853M13.0798 9.9389C12.9874 9.99496 12.8782 9.99683 12.7473 9.99683H11.9308V9.37224H12.7584C12.8756 9.37224 12.9978 9.3775 13.0772 9.42296C13.1644 9.46393 13.2183 9.55112 13.2183 9.67156C13.2183 9.79446 13.167 9.89335 13.0798 9.9389ZM18.9048 10.3853L18.4396 9.26427L17.9771 10.3853H18.9048ZM8.04665 11.5987H7.35761L7.35506 9.39633L6.38044 11.5987H5.79029L4.81313 9.39438V11.5987H3.44607L3.1878 10.9714H1.78834L1.52745 11.5987H0.797439L2.00106 8.78667H2.99968L4.14283 11.449V8.78667H5.23984L6.11946 10.6943L6.9275 8.78667H8.04656L8.04665 11.5987ZM10.7929 11.5987H8.54757V8.78667H10.7929V9.37224H9.21974V9.8791H10.7552V10.4555H9.21974V11.0171H10.7929V11.5987ZM13.9587 9.544C13.9587 9.99233 13.6595 10.224 13.4851 10.2935C13.6322 10.3495 13.7578 10.4484 13.8176 10.5303C13.9125 10.6702 13.9289 10.7951 13.9289 11.0463V11.5987H13.251L13.2484 11.244C13.2484 11.0748 13.2646 10.8315 13.1423 10.6962C13.0441 10.5973 12.8944 10.5759 12.6524 10.5759H11.9309V11.5987H11.2588V8.78667H12.8047C13.1482 8.78667 13.4013 8.79575 13.6186 8.92136C13.8313 9.04697 13.9587 9.23035 13.9587 9.544ZM15.0344 11.5987H14.3486V8.78667H15.0344V11.5987ZM22.9908 11.5987H22.0383L20.7643 9.4881V11.5987H19.3954L19.1339 10.9714H17.7376L17.4839 11.5987H16.6974C16.3706 11.5987 15.957 11.5264 15.7227 11.2876C15.4865 11.0489 15.3636 10.7255 15.3636 10.2141C15.3636 9.79709 15.4371 9.41584 15.726 9.11457C15.9433 8.89015 16.2835 8.78667 16.7467 8.78667H17.3974V9.38921H16.7604C16.5151 9.38921 16.3766 9.42568 16.2432 9.55578C16.1286 9.67419 16.05 9.89802 16.05 10.1928C16.05 10.494 16.1098 10.7112 16.2348 10.8531C16.3382 10.9644 16.5263 10.9982 16.7032 10.9982H17.0051L17.9524 8.78676H18.9595L20.0975 11.4465V8.78676H21.1208L22.3023 10.7452V8.78676H22.9908V11.5987ZM0.789636 12.151H1.93804L2.19699 11.5264H2.7767L3.03497 12.151H5.29454V11.6735L5.49624 12.153H6.66924L6.87093 11.6663V12.151H12.4864L12.4838 11.1257H12.5924C12.6685 11.1284 12.6907 11.1354 12.6907 11.261V12.151H15.5951V11.9123C15.8294 12.0378 16.1937 12.151 16.6732 12.151H17.895L18.1565 11.5264H18.7362L18.992 12.151H21.3465V11.5577L21.7031 12.151H23.5899V8.2291H21.7226V8.69227L21.4611 8.2291H19.545V8.69227L19.3049 8.2291H16.7168C16.2835 8.2291 15.9027 8.28957 15.5951 8.4581V8.2291H13.809V8.4581C13.6133 8.2844 13.3465 8.2291 13.0499 8.2291H6.5248L6.08698 9.24205L5.63737 8.2291H3.58211V8.69227L3.35633 8.2291H1.60353L0.789551 10.0938L0.789636 12.151Z" fill="white"/>
<path d="M24.703 14.2251H23.478C23.3557 14.2251 23.2745 14.2297 23.206 14.2759C23.1351 14.3214 23.1078 14.389 23.1078 14.4783C23.1078 14.5844 23.1677 14.6566 23.2548 14.6878C23.3257 14.7124 23.4019 14.7197 23.5138 14.7197L23.8781 14.7294C24.2457 14.7385 24.4911 14.8017 24.6407 14.9558C24.6679 14.9772 24.6843 15.0013 24.703 15.0254M24.703 16.0794C24.5397 16.3182 24.2216 16.4392 23.7909 16.4392H22.4929V15.8361H23.7856C23.9139 15.8361 24.0036 15.8192 24.0577 15.7665C24.1045 15.7229 24.1371 15.6598 24.1371 15.583C24.1371 15.5011 24.1045 15.436 24.055 15.397C24.0063 15.3541 23.9353 15.3346 23.8182 15.3346C23.1871 15.3131 22.3998 15.3541 22.3998 14.464C22.3998 14.0561 22.6588 13.6266 23.3641 13.6266H24.7029V13.067H23.459C23.0836 13.067 22.8109 13.1569 22.6178 13.2967V13.067H20.7779C20.4837 13.067 20.1383 13.14 19.975 13.2967V13.067H16.6894V13.2967C16.4279 13.1081 15.9867 13.067 15.783 13.067H13.6158V13.2967C13.4089 13.0964 12.9489 13.067 12.6685 13.067H10.243L9.68798 13.6677L9.16815 13.067H5.54498V16.9916H9.09995L9.67187 16.3815L10.2106 16.9916L12.4019 16.9936V16.0703H12.6174C12.9081 16.0748 13.251 16.0631 13.5535 15.9324V16.9915H15.361V15.9687H15.4482C15.5594 15.9687 15.5704 15.9732 15.5704 16.0844V16.9914H21.061C21.4096 16.9914 21.774 16.9022 21.9758 16.7403V16.9914H23.7174C24.0798 16.9914 24.4337 16.9406 24.703 16.8105V16.0794ZM22.0219 14.9558C22.1528 15.0912 22.2229 15.2622 22.2229 15.5517C22.2229 16.1568 21.8449 16.4392 21.167 16.4392H19.8579V15.8361H21.1618C21.2893 15.8361 21.3797 15.8192 21.4363 15.7665C21.4826 15.7229 21.5157 15.6598 21.5157 15.583C21.5157 15.5011 21.4798 15.436 21.4337 15.397C21.3823 15.3541 21.3114 15.3346 21.1944 15.3346C20.5658 15.3131 19.7786 15.3541 19.7786 14.464C19.7786 14.0561 20.0349 13.6266 20.7396 13.6266H22.087V14.2253H20.8541C20.7319 14.2253 20.6524 14.2298 20.5848 14.2761C20.5112 14.3216 20.4839 14.3892 20.4839 14.4784C20.4839 14.5845 20.5464 14.6567 20.6309 14.6879C20.7018 14.7126 20.778 14.7198 20.8925 14.7198L21.2543 14.7296C21.6192 14.7385 21.8697 14.8016 22.0219 14.9558ZM15.9569 14.7821C15.867 14.8354 15.7558 14.84 15.625 14.84H14.8085V14.2083H15.6361C15.7558 14.2083 15.8756 14.2108 15.9569 14.2591C16.044 14.3047 16.0961 14.3918 16.0961 14.5121C16.0961 14.6325 16.044 14.7294 15.9569 14.7821ZM16.3628 15.1321C16.5124 15.1873 16.6347 15.2863 16.6921 15.3682C16.787 15.5056 16.8007 15.6337 16.8034 15.8816V16.4392H16.1286V16.0873C16.1286 15.9181 16.1449 15.6676 16.02 15.5368C15.9218 15.436 15.7721 15.4119 15.5269 15.4119H14.8086V16.4392H14.1332V13.6265H15.685C16.0253 13.6265 16.2731 13.6416 16.4937 13.7593C16.7058 13.8874 16.8392 14.063 16.8392 14.3839C16.8391 14.8328 16.5397 15.0619 16.3628 15.1321ZM17.2119 13.6265H19.4552V14.2082H17.8813V14.7196H19.4168V15.2934H17.8813V15.853L19.4552 15.8556V16.4392H17.2119V13.6265ZM12.6771 14.9246H11.8085V14.2083H12.6849C12.9275 14.2083 13.096 14.3072 13.096 14.5532C13.096 14.7964 12.9353 14.9246 12.6771 14.9246ZM11.139 16.1834L10.1071 15.0377L11.139 13.9284V16.1834ZM8.47401 15.853H6.82146V15.2934H8.29709V14.7196H6.82146V14.2082H8.50658L9.24177 15.0279L8.47401 15.853ZM13.8176 14.5532C13.8176 15.3345 13.2346 15.4958 12.6471 15.4958H11.8085V16.4392H10.502L9.67441 15.5081L8.81429 16.4392H6.15192V13.6265H8.85526L9.68221 14.5485L10.5372 13.6265H12.6849C13.2183 13.6265 13.8176 13.7742 13.8176 14.5532Z" fill="white"/>
<defs>
<radialGradient id="paint0_radial_7687_68091" cx="0" cy="0" r="1" gradientUnits="userSpaceOnUse" gradientTransform="translate(5.00916 4.19185) scale(22.4405 22.4406)">
<stop stop-color="#9DD5F6"/>
<stop offset="0.0711" stop-color="#98D3F5"/>
<stop offset="0.1575" stop-color="#89CEF3"/>
<stop offset="0.2516" stop-color="#70C6EF"/>
<stop offset="0.3514" stop-color="#4EBBEA"/>
<stop offset="0.4546" stop-color="#23ADE3"/>
<stop offset="0.5" stop-color="#0DA6E0"/>
<stop offset="1" stop-color="#2E77BC"/>
</radialGradient>
</defs>
</svg>
