<svg width="45" height="14" viewBox="0 0 45 14" fill="none" xmlns="http://www.w3.org/2000/svg">
<g clip-path="url(#clip0_7687_68079)">
<path d="M19.7063 13.798H16.2021L18.3939 0.245651H21.8979L19.7063 13.798Z" fill="white"/>
<path d="M32.4094 0.576963C31.7182 0.30275 30.6219 -1.52588e-05 29.2664 -1.52588e-05C25.8059 -1.52588e-05 23.369 1.84532 23.354 4.48359C23.3253 6.4301 25.0988 7.51124 26.4252 8.16027C27.7809 8.82347 28.2418 9.25635 28.2418 9.84751C28.228 10.7554 27.1463 11.1739 26.1374 11.1739C24.7383 11.1739 23.9887 10.9582 22.8495 10.453L22.3881 10.2365L21.8977 13.2787C22.7196 13.6532 24.2338 13.9854 25.8059 14C29.4827 14 31.8765 12.1832 31.9049 9.37171C31.9188 7.82895 30.9824 6.64682 28.9634 5.68085C27.7378 5.06076 26.9872 4.64264 26.9872 4.00817C27.0016 3.43138 27.6221 2.84061 29.0056 2.84061C30.1448 2.81167 30.9818 3.0855 31.6159 3.35953L31.9328 3.50343L32.4094 0.576963Z" fill="white"/>
<path d="M37.0668 8.9969C37.3554 8.21833 38.4658 5.20506 38.4658 5.20506C38.4513 5.23399 38.7539 4.41212 38.9269 3.90757L39.1718 5.07533C39.1718 5.07533 39.8354 8.31932 39.9795 8.9969C39.4318 8.9969 37.7589 8.9969 37.0668 8.9969ZM41.3923 0.245651H38.6818C37.8459 0.245651 37.2109 0.490546 36.8503 1.3701L31.6452 13.7978H35.3221C35.3221 13.7978 35.9274 12.1252 36.0575 11.7649C36.4609 11.7649 40.0377 11.7649 40.5566 11.7649C40.6572 12.2407 40.9748 13.7978 40.9748 13.7978H44.2193L41.3923 0.245651Z" fill="white"/>
<path d="M13.2752 0.245651L9.84345 9.48707L9.46844 7.6128C8.83398 5.45014 6.84416 3.10046 4.62363 1.93213L7.76702 13.7836H11.4726L16.9807 0.245651H13.2752Z" fill="white"/>
<path d="M6.65674 0.245651H1.0188L0.961121 0.519481C5.35907 1.64412 8.27174 4.35501 9.46843 7.61338L8.24281 1.38485C8.04103 0.519289 7.42094 0.274203 6.65674 0.245651Z" fill="white"/>
</g>
<defs>
<clipPath id="clip0_7687_68079">
<rect width="43.2582" height="14" fill="white" transform="translate(0.961121)"/>
</clipPath>
</defs>
</svg>
